<?xml version="1.0" encoding="UTF-8"?>
<svg xmlns="http://www.w3.org/2000/svg" version="1.1" width="200" height="200" viewBox="0 0 200 200"><rect x="0" y="0" width="200" height="200" fill="#ffffff"/><g transform="scale(6.061)"><g transform="translate(0,0)"><path fill-rule="evenodd" d="M8 0L8 3L9 3L9 5L8 5L8 9L7 9L7 8L6 8L6 9L5 9L5 8L2 8L2 9L1 9L1 10L0 10L0 12L4 12L4 14L3 14L3 16L5 16L5 17L0 17L0 18L2 18L2 19L1 19L1 20L2 20L2 21L3 21L3 22L2 22L2 23L5 23L5 24L4 24L4 25L8 25L8 26L9 26L9 27L10 27L10 28L8 28L8 31L9 31L9 32L10 32L10 31L12 31L12 32L13 32L13 33L14 33L14 32L15 32L15 33L17 33L17 31L19 31L19 32L18 32L18 33L21 33L21 32L24 32L24 33L26 33L26 31L27 31L27 33L30 33L30 32L31 32L31 33L32 33L32 32L31 32L31 31L30 31L30 30L31 30L31 29L30 29L30 30L29 30L29 28L32 28L32 30L33 30L33 28L32 28L32 27L31 27L31 26L33 26L33 25L32 25L32 24L31 24L31 23L32 23L32 22L33 22L33 21L32 21L32 20L33 20L33 19L32 19L32 18L33 18L33 17L32 17L32 18L31 18L31 17L30 17L30 18L29 18L29 19L30 19L30 20L27 20L27 21L26 21L26 20L25 20L25 18L26 18L26 19L28 19L28 18L27 18L27 17L29 17L29 16L31 16L31 15L30 15L30 14L33 14L33 13L32 13L32 12L31 12L31 11L30 11L30 10L33 10L33 8L30 8L30 10L29 10L29 11L30 11L30 12L28 12L28 10L27 10L27 9L28 9L28 8L25 8L25 9L22 9L22 11L23 11L23 12L20 12L20 11L21 11L21 8L22 8L22 7L23 7L23 6L22 6L22 5L23 5L23 4L22 4L22 5L20 5L20 7L19 7L19 3L17 3L17 4L18 4L18 7L17 7L17 6L16 6L16 7L15 7L15 6L14 6L14 7L15 7L15 9L16 9L16 10L17 10L17 8L19 8L19 9L18 9L18 11L16 11L16 12L15 12L15 11L14 11L14 12L13 12L13 11L10 11L10 10L9 10L9 12L8 12L8 13L7 13L7 12L5 12L5 10L6 10L6 11L8 11L8 9L11 9L11 8L13 8L13 6L12 6L12 7L11 7L11 5L10 5L10 3L11 3L11 4L12 4L12 5L13 5L13 3L14 3L14 5L15 5L15 4L16 4L16 2L17 2L17 1L18 1L18 2L19 2L19 1L20 1L20 4L21 4L21 3L23 3L23 2L21 2L21 1L24 1L24 2L25 2L25 0L19 0L19 1L18 1L18 0L17 0L17 1L15 1L15 0L14 0L14 1L12 1L12 0L11 0L11 1L10 1L10 0ZM9 1L9 2L10 2L10 1ZM12 2L12 3L13 3L13 2ZM24 3L24 7L25 7L25 3ZM9 6L9 8L10 8L10 6ZM21 6L21 7L20 7L20 8L21 8L21 7L22 7L22 6ZM16 7L16 8L17 8L17 7ZM4 9L4 10L3 10L3 11L4 11L4 10L5 10L5 9ZM6 9L6 10L7 10L7 9ZM25 9L25 10L26 10L26 11L24 11L24 10L23 10L23 11L24 11L24 12L23 12L23 13L22 13L22 14L18 14L18 13L17 13L17 12L16 12L16 13L17 13L17 14L18 14L18 15L17 15L17 16L16 16L16 18L17 18L17 19L15 19L15 15L14 15L14 14L15 14L15 13L14 13L14 14L13 14L13 12L12 12L12 14L11 14L11 13L10 13L10 15L9 15L9 14L7 14L7 13L5 13L5 14L7 14L7 15L6 15L6 16L7 16L7 15L9 15L9 17L11 17L11 18L12 18L12 17L11 17L11 16L12 16L12 15L13 15L13 16L14 16L14 18L13 18L13 19L11 19L11 21L12 21L12 22L13 22L13 23L12 23L12 24L15 24L15 25L16 25L16 26L17 26L17 28L20 28L20 26L19 26L19 27L18 27L18 26L17 26L17 25L19 25L19 24L20 24L20 25L22 25L22 27L23 27L23 28L22 28L22 29L23 29L23 31L24 31L24 32L25 32L25 31L26 31L26 30L28 30L28 32L30 32L30 31L29 31L29 30L28 30L28 29L26 29L26 30L25 30L25 29L24 29L24 27L23 27L23 25L24 25L24 24L23 24L23 25L22 25L22 24L21 24L21 23L22 23L22 22L23 22L23 23L24 23L24 22L23 22L23 21L25 21L25 22L26 22L26 23L25 23L25 24L30 24L30 25L29 25L29 26L31 26L31 24L30 24L30 23L31 23L31 22L32 22L32 21L31 21L31 20L32 20L32 19L31 19L31 20L30 20L30 21L27 21L27 22L26 22L26 21L25 21L25 20L23 20L23 19L24 19L24 18L25 18L25 17L27 17L27 15L28 15L28 16L29 16L29 14L30 14L30 13L31 13L31 12L30 12L30 13L28 13L28 12L27 12L27 10L26 10L26 9ZM1 10L1 11L2 11L2 10ZM24 12L24 13L23 13L23 14L24 14L24 15L21 15L21 16L20 16L20 15L19 15L19 16L17 16L17 17L19 17L19 18L18 18L18 20L19 20L19 21L18 21L18 23L17 23L17 21L16 21L16 20L15 20L15 19L14 19L14 21L13 21L13 22L14 22L14 23L15 23L15 24L16 24L16 25L17 25L17 24L19 24L19 22L20 22L20 19L21 19L21 20L22 20L22 21L21 21L21 22L22 22L22 21L23 21L23 20L22 20L22 18L24 18L24 17L25 17L25 16L26 16L26 15L25 15L25 14L28 14L28 13L25 13L25 12ZM0 13L0 15L1 15L1 14L2 14L2 13ZM24 13L24 14L25 14L25 13ZM21 16L21 17L20 17L20 18L19 18L19 19L20 19L20 18L21 18L21 17L24 17L24 16ZM6 17L6 18L4 18L4 19L6 19L6 20L4 20L4 22L5 22L5 23L6 23L6 24L8 24L8 25L9 25L9 26L11 26L11 30L12 30L12 31L13 31L13 30L14 30L14 31L15 31L15 29L12 29L12 28L13 28L13 27L14 27L14 26L13 26L13 25L12 25L12 26L11 26L11 25L10 25L10 24L11 24L11 22L9 22L9 24L8 24L8 20L7 20L7 19L6 19L6 18L7 18L7 17ZM8 18L8 19L9 19L9 18ZM6 20L6 21L5 21L5 22L6 22L6 23L7 23L7 22L6 22L6 21L7 21L7 20ZM9 20L9 21L10 21L10 20ZM0 21L0 25L1 25L1 21ZM14 21L14 22L16 22L16 21ZM30 21L30 22L31 22L31 21ZM25 25L25 28L28 28L28 25ZM12 26L12 27L13 27L13 26ZM26 26L26 27L27 27L27 26ZM15 27L15 28L16 28L16 27ZM17 29L17 30L18 30L18 29ZM20 29L20 30L19 30L19 31L20 31L20 30L21 30L21 29ZM24 30L24 31L25 31L25 30ZM0 0L0 7L7 7L7 0ZM1 1L1 6L6 6L6 1ZM2 2L2 5L5 5L5 2ZM26 0L26 7L33 7L33 0ZM27 1L27 6L32 6L32 1ZM28 2L28 5L31 5L31 2ZM0 26L0 33L7 33L7 26ZM1 27L1 32L6 32L6 27ZM2 28L2 31L5 31L5 28Z" fill="#000000"/></g></g></svg>
